<?xml version="1.0" standalone="no"?>
<!DOCTYPE svg PUBLIC "-//W3C//DTD SVG 20010904//EN"
 "http://www.w3.org/TR/2001/REC-SVG-20010904/DTD/svg10.dtd">
<svg version="1.0" xmlns="http://www.w3.org/2000/svg"
 width="346.000000pt" height="146.000000pt" viewBox="0 0 346.000000 146.000000"
 preserveAspectRatio="xMidYMid meet">

<g transform="translate(0.000000,146.000000) scale(0.100000,-0.100000)"
fill="#000000" stroke="none">
<path d="M700 1195 c-64 -18 -148 -67 -190 -110 l-30 -31 87 8 c49 4 108 13
133 19 71 17 137 22 145 10 3 -6 38 -11 78 -11 91 0 109 -16 112 -99 1 -31 10
-76 19 -101 23 -59 23 -114 2 -177 -20 -60 -80 -127 -133 -149 -29 -13 -33
-17 -22 -30 8 -10 24 -14 40 -12 24 4 27 2 24 -23 -3 -18 0 -27 8 -24 7 2 26
6 42 9 l30 7 -25 -20 c-29 -23 -22 -38 11 -21 49 27 113 98 147 165 29 57 36
84 40 149 12 193 -67 330 -236 413 -61 30 -85 37 -150 40 -48 2 -98 -3 -132
-12z m410 -639 c0 -3 -4 -8 -10 -11 -5 -3 -10 -1 -10 4 0 6 5 11 10 11 6 0 10
-2 10 -4z m-40 -60 c0 -3 -4 -8 -10 -11 -5 -3 -10 -1 -10 4 0 6 5 11 10 11 6
0 10 -2 10 -4z"/>
<path d="M2878 1030 c-49 -66 -63 -90 -50 -90 18 1 132 143 132 166 0 27 -16
12 -82 -76z"/>
<path d="M2033 1093 l-832 -3 21 -38 c12 -20 26 -40 31 -43 4 -3 7 -10 6 -15
0 -5 2 -19 6 -31 l7 -23 746 0 746 0 28 27 c15 15 28 31 28 35 0 5 -189 7
-420 6 -277 -2 -419 0 -417 7 2 6 160 12 432 15 330 4 429 8 433 18 2 8 -2 10
-14 5 -12 -4 -15 -3 -10 6 5 7 14 10 21 7 7 -2 18 1 24 7 12 12 15 28 4 25 -5
-2 -382 -4 -840 -5z m-655 -30 c-9 -10 -18 -25 -21 -33 -4 -11 -6 -9 -6 6 -1
21 16 44 33 44 5 0 2 -8 -6 -17z m49 -14 c-12 -29 -12 -30 -18 -7 l-6 23 -5
-25 c-5 -24 -5 -24 -7 -2 -1 20 5 26 46 41 1 1 -4 -13 -10 -30z m243 21 c3 -1
-11 -5 -30 -9 -30 -5 -36 -12 -46 -46 -7 -22 -13 -34 -13 -26 -1 8 -8 11 -18
7 -12 -4 -10 0 5 10 12 9 22 26 22 38 0 17 -2 18 -10 6 -6 -10 -10 -11 -10 -2
0 8 -16 12 -45 12 -40 0 -45 -3 -46 -22 -2 -21 -2 -21 -7 2 -4 23 -5 24 -13 5
-7 -19 -8 -19 -8 2 -1 16 6 22 27 25 31 4 184 2 192 -2z m124 -38 c7 -47 -1
-55 -9 -8 -9 46 -39 49 -63 5 -9 -17 -21 -36 -27 -42 -5 -7 -9 -10 -8 -8 1 2
-3 13 -9 25 -10 19 -9 19 5 8 13 -11 17 -8 28 22 21 57 73 56 83 -2z m126 36
c0 -5 -4 -8 -9 -8 -5 0 -12 -12 -16 -27 l-8 -28 -6 25 c-9 34 -51 41 -52 8 -1
-23 -1 -23 -8 2 -5 17 -3 27 6 30 21 8 93 6 93 -2z m-227 -23 c-7 -21 -13 -19
-13 6 0 11 4 18 10 14 5 -3 7 -12 3 -20z m267 21 c0 -2 -7 -6 -15 -10 -8 -3
-15 -1 -15 4 0 6 7 10 15 10 8 0 15 -2 15 -4z m73 -3 c-7 -2 -19 -2 -25 0 -7
3 -2 5 12 5 14 0 19 -2 13 -5z m-499 -38 c-4 -8 -12 -15 -20 -15 -8 0 -11 6
-8 15 4 8 12 15 20 15 8 0 11 -6 8 -15z m116 5 c0 -5 -4 -10 -10 -10 -5 0 -10
5 -10 10 0 6 5 10 10 10 6 0 10 -4 10 -10z m-203 -32 c-3 -8 -6 -5 -6 6 -1 11
2 17 5 13 3 -3 4 -12 1 -19z m313 12 c0 -5 -4 -10 -10 -10 -5 0 -10 5 -10 10
0 6 5 10 10 10 6 0 10 -4 10 -10z m167 -12 c-3 -8 -6 -5 -6 6 -1 11 2 17 5 13
3 -3 4 -12 1 -19z m-580 -10 c-3 -8 -6 -5 -6 6 -1 11 2 17 5 13 3 -3 4 -12 1
-19z m63 7 c0 -8 -7 -15 -15 -15 -8 0 -15 5 -15 11 0 5 5 7 10 4 6 -3 10 -1
10 4 0 6 2 11 5 11 3 0 5 -7 5 -15z m57 -7 c-3 -8 -6 -5 -6 6 -1 11 2 17 5 13
3 -3 4 -12 1 -19z m350 0 c-3 -8 -6 -5 -6 6 -1 11 2 17 5 13 3 -3 4 -12 1 -19z
m40 0 c-3 -8 -6 -5 -6 6 -1 11 2 17 5 13 3 -3 4 -12 1 -19z m-207 2 c0 -5 -7
-10 -15 -10 -8 0 -15 5 -15 10 0 6 7 10 15 10 8 0 15 -4 15 -10z"/>
<path d="M206 1045 c7 -20 113 -135 125 -135 4 0 -15 23 -42 51 -27 29 -58 64
-69 78 -15 20 -19 21 -14 6z"/>
<path d="M3197 833 c-41 -54 -100 -132 -131 -173 l-57 -75 -251 -5 -252 -5
-65 -92 -66 -92 -638 0 c-474 -1 -636 2 -631 10 4 7 -7 1 -24 -11 -24 -18 -29
-27 -21 -36 9 -11 14 -11 26 1 12 13 105 15 658 15 l643 0 57 76 c94 126 60
114 338 115 l242 0 21 27 c144 188 244 323 244 331 0 27 -25 4 -93 -86z"/>
<path d="M394 854 c-28 -230 109 -418 338 -464 75 -15 96 -23 122 -49 l31 -31
-40 -1 c-121 -3 -206 16 -289 65 -24 14 -72 56 -106 93 -35 38 -55 55 -44 38
36 -58 129 -140 194 -171 76 -37 181 -58 251 -52 49 5 51 4 96 -43 l46 -49
104 0 c86 0 103 2 103 16 0 13 -16 15 -106 13 l-106 -2 -214 229 c-118 126
-214 234 -214 240 0 7 5 14 11 16 6 2 11 15 10 28 -1 80 1 100 12 100 5 0 4 6
-2 14 -16 19 26 26 158 26 79 0 112 -4 127 -15 29 -22 40 -18 18 6 -39 44 -72
49 -289 49 l-204 -1 -7 -55z m176 -198 c0 -3 -4 -8 -10 -11 -5 -3 -10 -1 -10
4 0 6 5 11 10 11 6 0 10 -2 10 -4z m13 -51 c4 -8 3 -16 -1 -19 -4 -3 -9 4 -9
15 -2 23 3 25 10 4z m27 -25 c0 -5 -5 -10 -11 -10 -5 0 -7 5 -4 10 3 6 8 10
11 10 2 0 4 -4 4 -10z m40 -35 c11 -13 10 -14 -4 -9 -9 3 -16 10 -16 15 0 13
6 11 20 -6z"/>
<path d="M1308 902 c-24 -3 -26 -6 -18 -28 15 -38 11 -121 -8 -195 -17 -63
-17 -66 0 -61 10 2 15 8 12 13 -3 5 0 9 5 9 6 0 11 -3 11 -7 0 -5 380 -9 845
-11 l845 -2 12 25 c6 14 14 25 18 25 4 0 22 21 40 48 19 26 58 77 87 114 29
37 53 70 53 73 0 6 -1852 3 -1902 -3z m545 -88 c-3 -8 -19 -14 -39 -14 -25 0
-34 -4 -34 -17 0 -13 3 -14 12 -5 14 14 42 16 33 2 -3 -5 -1 -10 4 -10 6 0 11
-7 11 -15 0 -10 -10 -15 -30 -15 -25 0 -30 -4 -29 -22 0 -21 1 -21 8 -4 5 14
10 16 15 8 4 -7 16 -12 27 -12 20 0 23 -8 11 -26 -9 -15 -102 -23 -103 -9 -3
32 -1 135 3 147 4 9 21 12 61 10 43 -3 54 -7 50 -18z m302 14 c27 -12 28 -13
25 -78 -2 -53 -23 -80 -62 -80 -42 0 -68 32 -68 83 0 47 6 58 35 75 26 15 38
15 70 0z m173 -11 c16 -13 15 -48 -3 -74 -13 -18 -12 -22 5 -38 11 -10 20 -22
20 -27 0 -12 -34 -10 -63 5 -20 11 -23 17 -15 25 9 9 8 12 -5 12 -11 0 -17 -8
-17 -24 0 -17 -7 -25 -23 -28 -19 -4 -23 -1 -21 16 1 12 3 49 3 83 l1 62 38 3
c41 4 61 0 80 -15z m432 -3 c0 -9 -12 -14 -35 -14 -27 0 -35 -4 -35 -17 0 -15
2 -16 10 -3 7 11 10 11 10 2 0 -7 5 -10 10 -7 17 11 40 -3 34 -20 -4 -9 -18
-15 -35 -15 -19 0 -29 -5 -29 -15 0 -8 3 -14 8 -14 32 5 52 -3 52 -21 0 -18
-7 -20 -54 -20 l-54 0 4 76 c2 42 6 79 8 82 2 4 27 5 55 4 35 -3 51 -8 51 -18z
m-1281 -3 c11 -21 7 -56 -9 -76 -7 -9 -3 -20 17 -41 l28 -29 3 83 c3 74 5 82
22 82 18 0 20 -7 20 -80 0 -69 -2 -80 -17 -81 -10 0 -37 -1 -60 -2 -23 -1 -41
0 -40 3 0 3 -2 15 -7 28 -10 30 -36 29 -36 -2 0 -17 -7 -25 -22 -28 -24 -4
-25 3 -19 145 1 26 106 25 120 -2z m229 3 c10 -19 4 -115 -9 -128 -5 -5 -31
-12 -59 -16 l-50 -6 0 83 0 83 55 0 c39 0 56 -4 63 -16z m332 1 c0 -10 -11
-15 -35 -15 -42 0 -49 -24 -8 -28 32 -3 37 -7 30 -27 -4 -8 -18 -15 -32 -15
-20 0 -25 -5 -25 -25 0 -23 -34 -54 -43 -38 -2 5 -3 33 -1 63 4 110 -2 100 59
100 42 0 55 -3 55 -15z m440 0 c0 -10 -11 -15 -35 -15 -27 0 -35 -4 -34 -17 0
-10 3 -13 5 -6 5 12 61 2 57 -10 -2 -4 -3 -11 -3 -17 0 -5 -13 -10 -30 -10
-20 0 -30 -5 -30 -15 0 -10 10 -15 28 -15 34 0 43 -7 35 -26 -3 -9 -21 -14
-50 -14 -24 0 -42 -4 -39 -8 2 -4 -12 -8 -32 -9 -31 -1 -32 0 -11 5 26 7 26 9
25 89 l-1 83 58 0 c44 0 57 -3 57 -15z m64 -16 c3 -17 6 -43 6 -58 1 -19 6
-11 20 29 11 30 20 56 20 57 0 2 11 3 24 3 l23 0 -27 -77 c-23 -64 -32 -78
-53 -84 -24 -6 -27 -3 -41 39 -8 26 -18 64 -22 85 -6 35 -5 37 19 37 19 0 26
-6 31 -31z m361 1 c4 -20 2 -39 -8 -53 -15 -23 -15 -22 25 -64 15 -17 14 -18
-19 -17 -28 1 -39 7 -50 28 -17 33 -33 34 -33 1 0 -18 -5 -25 -20 -25 -11 0
-20 6 -21 13 -2 28 -2 84 -1 115 l2 32 59 0 c58 0 60 -1 66 -30z m-724 -133
c-10 -9 -11 -8 -5 6 3 10 9 15 12 12 3 -3 0 -11 -7 -18z"/>
<path d="M2103 780 c3 -11 2 -20 -2 -20 -4 0 -7 -9 -6 -21 1 -21 23 -41 37
-33 8 5 3 58 -8 75 -4 8 -3 9 4 5 7 -4 12 -2 12 3 0 6 -10 11 -21 11 -16 0
-20 -5 -16 -20z"/>
<path d="M2250 776 c0 -19 4 -23 20 -19 11 3 20 14 20 24 0 12 -7 19 -20 19
-14 0 -20 -7 -20 -24z"/>
<path d="M1400 775 c0 -23 2 -24 20 -15 11 6 20 17 20 25 0 8 -9 15 -20 15
-15 0 -20 -7 -20 -25z"/>
<path d="M1638 794 c6 -3 12 -13 12 -22 0 -15 -2 -15 -10 -2 -7 11 -10 4 -10
-27 0 -37 2 -41 21 -36 17 5 20 12 17 47 -2 32 -7 41 -23 43 -11 2 -14 0 -7
-3z"/>
<path d="M2820 780 c0 -24 25 -27 34 -4 9 23 8 24 -14 24 -13 0 -20 -7 -20
-20z"/>
<path d="M1232 555 c-15 -33 -15 -38 1 -29 7 4 9 3 4 -2 -5 -5 -12 -9 -17 -9
-4 0 -29 -25 -56 -55 -27 -30 -41 -49 -32 -42 12 9 47 14 106 14 l88 1 -3 31
c-2 27 -2 28 5 6 5 -17 18 -26 40 -31 21 -4 32 -3 32 5 0 7 3 7 8 1 4 -5 33
-10 65 -11 45 0 57 3 57 15 0 12 2 13 8 3 11 -16 82 -29 82 -14 0 5 -8 9 -17
8 -10 0 -18 7 -19 17 -1 12 0 13 3 2 6 -19 12 -19 35 2 18 16 18 16 12 -1 -4
-11 -1 -21 7 -27 10 -6 16 -1 20 19 l7 27 1 -27 c1 -24 5 -27 34 -25 17 1 35
7 39 12 5 6 8 6 8 -2 0 -13 37 -6 59 11 11 8 13 8 8 0 -11 -18 16 -23 63 -13
30 7 46 6 56 -2 10 -8 22 -8 44 -1 18 7 32 7 35 1 4 -5 13 -9 21 -9 8 0 13 3
10 8 -2 4 13 6 35 4 38 -4 59 7 72 38 3 10 6 7 6 -7 1 -13 -4 -23 -11 -23 -6
0 -8 -3 -4 -7 11 -11 206 -11 206 0 0 6 3 7 7 4 7 -8 43 21 43 35 0 4 -21 8
-47 8 -62 0 -45 18 21 22 41 3 52 8 74 36 l25 32 -615 0 -615 0 -11 -25z m143
-4 c-20 -4 -31 -14 -36 -31 -6 -21 -7 -22 -8 -4 -1 27 18 44 49 43 23 -1 23
-2 -5 -8z m110 2 c-11 -3 -26 -10 -33 -15 -9 -8 -11 -7 -6 6 4 10 16 16 33 15
20 -1 22 -2 6 -6z m105 3 c0 -2 -7 -6 -15 -10 -8 -3 -15 -1 -15 4 0 6 7 10 15
10 8 0 15 -2 15 -4z m69 -3 c-9 -2 -22 -15 -29 -29 -12 -21 -15 -22 -23 -9 -4
9 -6 21 -3 28 2 7 5 3 5 -8 1 -18 2 -18 17 3 8 12 23 21 32 21 15 -1 15 -2 1
-6z m47 -35 c-8 -30 -12 -36 -14 -21 -3 19 13 63 22 63 2 0 -2 -19 -8 -42z
m92 30 c-8 -7 -22 -24 -32 -38 l-16 -24 0 27 c0 16 4 26 9 23 5 -3 14 1 21 9
7 8 17 15 23 15 6 0 4 -6 -5 -12z m225 5 c-13 -2 -33 -2 -45 0 -13 2 -3 4 22
4 25 0 35 -2 23 -4z m88 -2 c-21 -4 -37 -14 -42 -26 -5 -14 -8 -15 -8 -4 -1
24 20 39 54 38 l30 -2 -34 -6z m102 2 c-25 -3 -34 -10 -39 -29 -4 -14 -8 -23
-11 -21 -2 3 -1 16 3 31 5 22 11 26 43 24 l36 -1 -32 -4z m-367 -62 c-1 -57
-11 -55 -19 4 -5 27 -3 35 3 25 8 -13 10 -12 10 3 0 9 2 17 4 17 1 0 3 -22 2
-49z m47 29 c3 -11 1 -18 -4 -14 -5 3 -9 12 -9 20 0 20 7 17 13 -6z m-393 -4
c0 -8 -4 -18 -10 -21 -6 -4 -7 1 -3 11 4 12 3 15 -5 10 -7 -4 -12 -2 -12 3 0
6 7 11 15 11 8 0 15 -6 15 -14z m57 -8 c-3 -8 -6 -5 -6 6 -1 11 2 17 5 13 3
-3 4 -12 1 -19z m385 -10 c-8 -8 -9 -4 -5 13 4 13 8 18 11 10 2 -7 -1 -18 -6
-23z m48 22 c0 -5 -4 -10 -10 -10 -5 0 -10 5 -10 10 0 6 5 10 10 10 6 0 10 -4
10 -10z m160 3 c0 -5 -11 -9 -25 -9 -14 -1 -25 2 -25 7 0 5 11 9 25 9 14 0 25
-3 25 -7z m80 -10 c0 -7 -7 -13 -15 -13 -8 0 -15 6 -15 13 0 8 7 14 15 14 8 0
15 -6 15 -14z m-213 -35 c-3 -8 -6 -5 -6 6 -1 11 2 17 5 13 3 -3 4 -12 1 -19z
m-627 -4 c0 -2 -7 -4 -15 -4 -8 0 -15 4 -15 10 0 5 7 7 15 4 8 -4 15 -8 15
-10z m42 -9 c3 -14 1 -25 -3 -25 -5 0 -9 11 -9 25 0 14 2 25 4 25 2 0 6 -11 8
-25z m58 9 c0 -2 -7 -4 -15 -4 -8 0 -15 4 -15 10 0 5 7 7 15 4 8 -4 15 -8 15
-10z m410 4 c0 -4 -7 -8 -15 -8 -8 0 -15 4 -15 8 0 5 7 9 15 9 8 0 15 -4 15
-9z m70 -25 c-11 -17 -11 -17 -6 0 3 10 6 24 7 30 0 9 2 9 5 0 3 -7 0 -20 -6
-30z m87 15 c-3 -8 -6 -5 -6 6 -1 11 2 17 5 13 3 -3 4 -12 1 -19z m68 12 c3
-5 -3 -10 -14 -10 -12 0 -21 5 -21 10 0 6 6 10 14 10 8 0 18 -4 21 -10z m-398
-22 c-3 -8 -6 -5 -6 6 -1 11 2 17 5 13 3 -3 4 -12 1 -19z m53 7 c0 -8 -4 -15
-10 -15 -5 0 -7 7 -4 15 4 8 8 15 10 15 2 0 4 -7 4 -15z m480 0 c7 -9 8 -15 2
-15 -5 0 -12 7 -16 15 -3 8 -4 15 -2 15 2 0 9 -7 16 -15z m-47 -9 c4 -10 1
-13 -9 -9 -15 6 -19 23 -5 23 5 0 11 -7 14 -14z m-693 -6 c0 -5 -5 -10 -11
-10 -5 0 -7 5 -4 10 3 6 8 10 11 10 2 0 4 -4 4 -10z"/>
<path d="M1000 416 c0 -2 7 -7 16 -10 8 -3 12 -2 9 4 -6 10 -25 14 -25 6z"/>
<path d="M1000 250 c-8 -5 -10 -10 -5 -10 6 0 17 5 25 10 8 5 11 10 5 10 -5 0
-17 -5 -25 -10z"/>
</g>
</svg>
